<?xml version="1.0" standalone="no"?>
<!DOCTYPE svg PUBLIC "-//W3C//DTD SVG 20010904//EN"
 "http://www.w3.org/TR/2001/REC-SVG-20010904/DTD/svg10.dtd">
<svg version="1.0" xmlns="http://www.w3.org/2000/svg"
 width="500.000000pt" height="500.000000pt" viewBox="0 0 500.000000 500.000000"
 preserveAspectRatio="xMidYMid meet">
<metadata>
Created by potrace 1.14, written by Peter Selinger 2001-2017
</metadata>
<g transform="translate(0.000000,500.000000) scale(0.100000,-0.100000)"
fill="#000000" stroke="none">
<path d="M1041 4023 c0 -13 -6 -23 -12 -23 -5 0 -7 6 -4 13 4 6 -1 3 -9 -7 -9
-11 -16 -16 -16 -10 0 5 -5 1 -11 -8 -5 -10 -17 -18 -25 -18 -8 0 -12 -4 -9
-10 5 -9 -15 -15 -38 -11 -4 1 -3 -9 4 -21 6 -13 8 -20 4 -16 -10 9 -35 -37
-35 -63 0 -11 5 -19 10 -19 13 0 11 -118 -2 -126 -16 -10 -8 -70 12 -92 12
-12 16 -22 10 -22 -5 0 -10 -5 -10 -12 0 -6 3 -8 7 -5 11 12 31 -37 20 -50 -6
-9 -6 -13 2 -13 6 0 11 -9 11 -20 0 -11 6 -20 14 -20 10 0 13 -9 11 -30 -3
-20 0 -28 7 -24 6 4 9 1 6 -7 -3 -8 4 -19 16 -26 18 -11 19 -12 3 -13 -10 0
-15 -5 -12 -10 4 -6 11 -8 16 -5 5 4 9 -4 9 -17 0 -13 9 -34 20 -48 11 -14 20
-36 20 -50 0 -20 2 -22 10 -10 8 13 10 12 11 -5 1 -11 1 -23 0 -27 0 -5 7 -8
17 -8 14 0 15 -2 2 -10 -10 -7 -11 -10 -2 -10 8 0 11 -9 8 -25 -3 -13 0 -28 6
-31 7 -5 8 -2 3 6 -6 9 -4 11 4 6 7 -5 10 -14 7 -22 -3 -9 1 -14 12 -14 14 0
14 -2 3 -9 -11 -7 -8 -11 10 -16 21 -7 22 -9 6 -14 -18 -7 -18 -8 -1 -21 15
-12 16 -12 9 -1 -5 10 -4 12 3 7 8 -5 9 -13 3 -24 -4 -9 -6 -23 -4 -29 3 -7
-2 -16 -11 -19 -8 -3 -13 -11 -10 -19 3 -7 -2 -15 -10 -18 -11 -4 -14 -1 -10
11 2 9 -1 7 -7 -6 -7 -13 -18 -21 -26 -18 -9 4 -13 0 -11 -12 2 -9 -2 -16 -9
-15 -6 1 -17 -4 -23 -12 -10 -12 -10 -19 1 -32 8 -10 9 -14 2 -10 -6 4 -14 3
-17 -2 -4 -5 -3 -12 2 -15 5 -3 8 -21 7 -40 -1 -20 2 -33 6 -30 10 6 12 -6 9
-54 -1 -18 4 -40 12 -49 9 -12 9 -15 1 -9 -18 10 -17 -22 1 -39 9 -9 12 -28 9
-56 -4 -33 -2 -40 8 -33 12 6 12 5 0 -9 -11 -14 -11 -20 0 -34 8 -10 9 -14 2
-10 -14 9 -15 -55 -1 -64 6 -4 10 -45 11 -92 1 -57 4 -84 11 -79 6 3 6 -1 -1
-9 -14 -17 -14 -30 -2 -46 7 -7 6 -14 -1 -18 -6 -3 -7 -11 -4 -17 4 -7 2 -8
-4 -4 -7 4 -12 3 -12 -2 0 -14 -39 -22 -47 -10 -3 7 -1 8 5 4 7 -4 12 -5 12
-2 0 3 -10 10 -22 17 -18 10 -20 9 -14 -7 6 -16 5 -17 -11 -2 -10 8 -24 13
-31 11 -7 -3 -11 1 -10 9 2 7 -3 12 -10 10 -8 -1 -11 2 -8 7 4 5 -1 16 -9 24
-8 9 -15 22 -15 31 0 8 -5 18 -12 22 -6 4 -8 3 -5 -3 3 -5 0 -10 -7 -10 -8 0
-12 6 -9 12 2 7 -10 18 -29 26 -18 7 -37 15 -42 17 -5 3 -6 -2 -2 -9 4 -8 1
-6 -8 5 -8 10 -20 15 -27 10 -8 -4 -10 -3 -5 4 5 9 -6 12 -36 12 -31 0 -39 -3
-28 -10 12 -7 8 -10 -15 -11 -16 0 -24 -3 -17 -6 6 -2 12 -9 12 -14 0 -6 -5
-7 -12 -3 -8 5 -9 2 -5 -9 4 -11 1 -17 -8 -17 -8 0 -15 -5 -15 -11 0 -5 6 -7
13 -3 8 6 8 3 -2 -9 -7 -9 -11 -24 -7 -32 3 -9 2 -13 -4 -10 -15 9 -29 -37
-18 -57 8 -17 4 -22 -16 -19 -5 1 -3 -5 4 -14 11 -13 10 -15 -3 -9 -11 4 -15
0 -13 -13 2 -10 -4 -23 -13 -30 -11 -8 -12 -12 -3 -13 6 0 12 -5 12 -11 0 -5
-4 -7 -10 -4 -5 3 -10 -3 -10 -14 0 -12 -5 -21 -12 -21 -6 0 -3 -7 8 -15 14
-11 15 -14 2 -9 -12 4 -16 1 -14 -13 2 -10 -2 -21 -8 -25 -7 -5 -6 -8 3 -8 11
0 9 -4 -5 -15 -14 -11 -15 -14 -4 -15 13 0 13 -2 1 -9 -13 -8 -13 -12 0 -27 9
-11 9 -15 2 -10 -7 4 -13 3 -13 -2 0 -17 13 -22 28 -9 13 10 15 9 9 -7 -6 -15
-4 -17 13 -13 13 3 18 1 13 -6 -4 -6 2 -8 16 -4 19 5 20 3 9 -11 -7 -9 -8 -13
-2 -9 6 3 20 0 30 -8 23 -17 38 -19 28 -3 -5 7 -3 8 7 2 21 -13 57 -16 64 -4
3 5 15 10 26 10 11 0 19 7 19 16 0 9 5 12 12 8 8 -5 9 -2 4 12 -4 10 -4 15 0
11 4 -4 14 -1 22 6 13 9 14 9 8 0 -8 -15 6 -17 19 -4 14 14 53 -21 57 -50 2
-13 7 -30 12 -38 6 -10 5 -12 -2 -7 -19 11 -14 -5 6 -21 9 -8 11 -11 4 -8 -11
6 -12 3 -2 -14 6 -12 15 -19 21 -16 5 4 14 -6 19 -20 6 -16 14 -23 22 -19 7 4
8 3 4 -5 -4 -6 -3 -17 2 -24 5 -7 8 -22 7 -34 -1 -12 1 -20 5 -18 13 8 30 -45
30 -90 0 -34 -4 -45 -16 -45 -9 0 -12 5 -8 13 5 7 0 6 -11 -3 -11 -9 -16 -10
-11 -2 5 8 1 12 -11 12 -11 0 -25 6 -32 12 -11 11 -12 10 -6 -2 7 -12 6 -13
-7 -3 -8 7 -19 9 -24 5 -4 -4 -3 0 4 9 10 14 9 17 -8 22 -11 3 -20 1 -20 -5 0
-5 -4 -7 -9 -3 -5 3 -13 0 -16 -6 -4 -5 -14 -8 -23 -4 -9 3 -13 3 -10 0 4 -4
3 -17 -2 -30 -6 -17 -5 -27 6 -35 7 -7 14 -18 14 -24 0 -6 -5 -4 -10 4 -14 22
-12 6 3 -24 8 -14 16 -24 18 -21 3 2 11 -5 18 -17 7 -11 8 -18 3 -14 -5 3 -9
-1 -9 -8 0 -8 6 -12 14 -9 7 3 16 -2 19 -11 3 -9 10 -13 15 -10 5 3 9 2 8 -3
-1 -4 -1 -14 0 -22 1 -11 4 -11 18 0 9 8 14 9 10 2 -5 -8 4 -10 28 -8 19 2 35
-1 35 -6 0 -6 4 -7 10 -4 5 3 10 1 10 -6 0 -8 5 -7 17 2 11 10 14 10 9 1 -8
-14 19 -12 43 2 10 6 12 5 7 -2 -10 -16 2 -15 19 2 8 7 11 16 8 20 -6 5 11 10
28 8 4 -1 6 6 5 16 0 10 6 16 16 16 10 -1 17 1 16 5 -2 23 6 31 32 31 20 0 30
-5 30 -15 0 -8 4 -15 8 -15 7 0 11 -18 13 -62 0 -10 7 -18 15 -18 8 0 12 -5 8
-11 -4 -7 9 -10 41 -8 35 2 50 -1 60 -14 6 -9 16 -13 21 -9 4 4 3 0 -4 -10
-10 -12 -10 -18 -1 -24 8 -5 10 -3 5 7 -4 8 -1 6 7 -3 8 -10 18 -14 22 -10 5
4 5 -1 2 -11 -4 -11 -3 -16 3 -12 6 3 14 -5 20 -19 5 -14 12 -26 15 -26 4 0 3
5 0 10 -3 5 -1 10 4 10 6 0 11 -4 11 -9 0 -13 142 -11 159 3 11 8 13 8 8 0 -4
-7 0 -15 9 -18 10 -4 13 -2 9 7 -4 6 0 4 8 -6 15 -18 33 -24 23 -8 -6 10 12 9
29 -1 16 -9 125 -7 125 3 0 5 5 9 11 9 5 0 8 -4 5 -8 -3 -4 44 -8 104 -8 74 0
107 3 103 10 -3 6 0 5 8 -1 7 -7 19 -13 27 -13 8 0 10 5 6 13 -6 9 -4 9 8 -1
11 -9 18 -10 23 -2 3 5 12 10 18 10 7 0 6 -4 -3 -10 -13 -8 -13 -10 2 -10 9 0
20 5 23 10 3 6 17 10 31 10 17 0 23 4 18 12 -5 7 -3 8 7 2 21 -13 39 -14 39
-1 0 8 3 7 9 -2 6 -9 10 -10 16 -2 5 9 10 9 21 0 11 -9 18 -8 31 2 13 11 15
11 9 1 -7 -11 -4 -11 12 -1 12 7 18 18 14 24 -3 5 1 4 9 -2 12 -10 18 -10 29
0 10 10 11 9 5 -2 -6 -10 -2 -11 16 -6 13 4 30 13 38 19 12 9 13 8 6 -4 -6
-11 -3 -10 11 2 16 14 23 15 32 6 9 -9 12 -9 12 2 0 10 3 11 11 3 9 -9 21 -8
48 2 20 7 43 13 51 14 25 0 49 7 57 16 5 4 1 5 -7 0 -8 -5 -12 -5 -8 0 4 4 25
9 45 11 55 4 63 6 63 16 0 5 12 5 26 2 18 -5 25 -3 21 3 -4 6 -1 11 6 10 42
-1 67 5 67 16 0 9 13 13 45 11 26 -1 43 2 40 7 -4 5 3 9 15 9 13 0 19 4 14 11
-4 8 0 8 15 0 14 -8 21 -8 21 -1 0 5 6 9 13 7 6 -1 11 4 9 12 -2 11 0 12 11 2
12 -9 16 -8 21 6 6 15 8 15 16 3 7 -10 10 -11 10 -2 0 6 9 12 20 12 11 0 20 6
20 13 0 8 4 7 10 -3 6 -10 10 -11 10 -2 0 6 9 12 21 12 13 0 18 4 13 13 -6 9
-4 9 8 -1 13 -10 17 -10 21 3 4 9 13 12 23 8 12 -4 15 -3 10 5 -5 8 3 12 23
12 17 0 31 5 31 10 0 6 11 10 25 10 14 0 25 5 25 10 0 6 9 10 21 10 11 0 18 3
15 8 -2 4 7 12 20 19 13 6 22 7 18 2 -3 -5 0 -9 7 -9 7 0 9 8 6 21 -4 14 -2
18 6 11 13 -10 47 -12 47 -3 0 4 9 12 21 19 14 9 19 10 14 2 -6 -9 -2 -9 14
-1 11 7 21 14 21 17 0 3 -5 2 -12 -2 -7 -4 -8 -3 -4 4 4 7 14 12 22 12 8 0 14
4 14 9 0 5 10 7 23 4 18 -4 19 -3 7 6 -12 9 -10 11 10 11 20 0 22 2 10 10 -8
5 -10 10 -4 10 5 0 16 -6 23 -12 11 -10 13 -10 7 0 -6 11 5 17 26 13 5 0 7 2
7 7 -3 18 2 26 10 14 7 -11 11 -11 23 2 9 8 18 12 22 9 3 -4 6 -1 6 5 0 5 -6
13 -12 16 -7 4 -3 4 10 2 18 -4 22 -1 18 11 -5 13 -4 14 9 3 11 -9 15 -9 15
-1 0 7 5 9 13 5 8 -5 7 -2 -2 9 -12 15 -12 17 3 11 9 -4 16 -1 16 6 0 7 7 10
15 6 8 -3 15 -1 15 5 0 6 6 7 13 3 8 -5 7 -2 -2 9 -12 15 -12 17 4 11 13 -5
16 -4 11 4 -4 7 -1 12 9 12 8 0 18 7 21 15 4 8 10 12 15 9 13 -7 40 16 33 27
-3 5 2 9 11 9 10 0 13 5 9 13 -5 8 -2 7 9 -2 15 -12 17 -12 12 1 -5 12 1 14
26 10 25 -4 30 -2 24 9 -7 12 -6 12 7 1 13 -10 18 -10 24 -1 5 8 3 10 -7 5 -8
-4 -7 -2 2 6 16 13 19 19 19 39 0 5 4 7 10 4 14 -9 12 8 -2 24 -9 9 -9 12 -1
7 6 -3 18 1 26 9 9 8 17 10 19 5 2 -6 14 -4 30 4 18 9 25 10 22 3 -3 -8 10
-12 36 -12 39 0 52 8 28 18 -7 3 -3 6 9 6 12 1 41 19 63 41 22 22 45 40 50 40
13 0 24 39 24 88 1 26 -3 42 -11 42 -6 0 -13 12 -15 28 -2 19 -9 28 -25 30
-15 2 -20 8 -16 19 4 11 2 14 -5 9 -7 -4 -12 -1 -12 9 0 9 -4 14 -9 10 -5 -3
-9 8 -9 24 1 17 4 28 8 26 4 -2 8 19 9 47 1 33 -3 54 -11 60 -10 6 -10 8 2 8
9 1 5 6 -10 15 -14 8 -19 14 -12 15 7 0 12 13 12 33 0 24 -3 28 -10 17 -8 -12
-10 -9 -10 12 0 14 -6 29 -12 31 -10 4 -10 6 0 6 22 2 13 21 -10 22 -22 0 -22
1 -3 9 11 5 14 9 7 9 -7 1 -10 6 -6 13 5 7 2 9 -8 5 -12 -4 -14 -1 -10 15 3
14 1 19 -6 14 -7 -4 -12 -2 -12 3 0 6 5 11 11 11 5 0 7 5 4 10 -4 6 -10 8 -15
5 -4 -3 -14 3 -21 12 -12 14 -12 16 1 8 8 -5 3 4 -12 19 -15 16 -25 32 -22 37
3 5 -3 6 -13 2 -16 -6 -17 -5 -3 12 10 12 10 16 2 11 -15 -9 -67 38 -58 52 3
5 -1 9 -9 9 -8 0 -11 -5 -8 -10 4 -6 1 -7 -6 -3 -7 5 -10 14 -7 22 3 8 -1 14
-10 14 -8 0 -12 5 -9 10 4 6 -6 10 -22 11 -25 0 -26 1 -8 9 11 5 14 9 7 9 -19
1 -42 26 -42 45 0 10 -9 16 -22 17 -13 0 -17 3 -10 6 6 2 12 17 12 31 0 21 2
24 10 12 8 -12 10 -11 10 5 0 12 -6 27 -13 34 -10 11 -9 12 3 6 9 -5 12 -4 7
1 -11 12 -78 14 -71 3 3 -5 -2 -9 -11 -9 -10 0 -13 -5 -9 -12 5 -8 0 -7 -11 2
-10 8 -16 10 -12 3 11 -18 -16 -22 -31 -4 -8 9 -10 10 -7 3 6 -12 3 -12 -15
-2 -18 10 -20 14 -9 21 10 6 8 9 -8 9 -13 0 -23 5 -23 10 0 6 -12 10 -26 10
-14 0 -23 4 -19 10 5 8 -21 15 -46 12 -4 -1 -5 9 -2 21 4 18 3 19 -6 7 -8 -11
-11 -12 -11 -2 0 7 -4 10 -10 7 -5 -3 -10 2 -11 12 0 11 -3 13 -6 5 -3 -9 -9
-7 -21 6 -10 10 -13 12 -8 5 6 -10 4 -12 -8 -7 -9 3 -16 12 -16 20 0 8 -7 14
-16 14 -9 0 -12 5 -8 13 5 7 0 6 -11 -3 -11 -9 -16 -10 -11 -2 4 7 1 12 -9 12
-9 0 -13 5 -10 11 4 6 1 10 -6 8 -27 -3 -40 1 -34 11 4 6 -7 10 -27 10 -25 0
-29 3 -18 10 12 8 9 10 -12 10 -16 0 -28 5 -28 10 0 6 -7 10 -16 10 -8 0 -12
5 -9 10 3 6 2 10 -4 10 -5 0 -12 -6 -15 -12 -4 -7 -4 -3 -2 9 2 12 1 22 -3 21
-29 -3 -51 4 -45 15 5 8 2 7 -9 -2 -15 -12 -17 -12 -11 3 4 9 3 16 -2 15 -5
-2 -27 6 -49 16 -22 10 -44 19 -48 19 -4 1 -11 6 -15 11 -4 6 -18 11 -32 13
-14 1 -26 7 -28 12 -2 6 -10 10 -18 10 -8 0 -14 5 -14 10 0 6 -10 10 -22 10
-30 1 -65 26 -46 33 7 3 -4 4 -24 2 -24 -1 -39 3 -42 12 -4 8 -15 12 -32 9
-21 -4 -23 -2 -14 9 8 10 8 15 -1 21 -8 4 -9 3 -5 -4 4 -7 2 -12 -3 -12 -6 0
-11 4 -11 9 0 5 -11 8 -25 6 -22 -2 -23 0 -13 13 11 13 10 15 -9 10 -17 -4
-23 -2 -23 9 0 13 -3 13 -17 2 -10 -7 -15 -9 -11 -5 10 12 -41 38 -59 32 -8
-3 -16 1 -19 9 -4 8 -15 15 -25 15 -10 0 -19 3 -19 8 0 11 -56 34 -77 30 -11
-2 -17 2 -15 11 3 12 1 12 -14 0 -12 -9 -15 -9 -10 -1 5 8 -2 12 -23 12 -23 0
-31 5 -32 18 0 12 -2 13 -6 3 -4 -10 -9 -8 -20 10 -8 13 -12 16 -9 7 7 -22
-17 -24 -34 -3 -7 9 -19 14 -27 11 -8 -3 -11 -1 -8 4 3 6 -1 11 -9 11 -18 2
-52 6 -63 8 -5 1 -2 5 6 10 10 6 2 9 -24 9 -21 0 -41 6 -45 12 -5 7 -15 10
-24 7 -8 -3 -22 0 -30 8 -8 8 -22 12 -30 9 -9 -3 -16 -1 -16 6 0 6 -4 8 -10 5
-5 -3 -10 -2 -10 3 0 5 -8 9 -17 9 -25 0 -63 14 -63 23 0 4 -11 6 -24 5 -14
-2 -27 3 -30 12 -4 8 -11 11 -18 6 -7 -4 -19 -8 -26 -9 -10 -2 -11 1 -1 12 10
12 9 13 -5 8 -10 -4 -16 -1 -16 7 0 10 -3 10 -11 2 -9 -9 -15 -8 -26 3 -8 8
-19 12 -24 9 -5 -4 -9 -1 -9 6 0 8 -3 9 -13 0 -11 -8 -18 -6 -32 9 -10 12 -25
18 -32 16 -7 -3 -19 2 -28 10 -11 12 -15 12 -15 2 0 -8 -3 -9 -8 -3 -4 6 -20
12 -37 14 -16 1 -33 7 -36 13 -3 5 -9 9 -13 9 -29 -4 -56 1 -51 9 4 6 -8 10
-29 10 -20 0 -36 5 -36 10 0 6 -13 10 -29 10 -17 0 -33 5 -36 10 -3 6 -12 10
-18 10 -7 0 -6 -4 3 -10 9 -6 10 -10 3 -10 -6 0 -15 5 -18 10 -3 6 -13 10 -21
10 -9 0 -23 7 -32 16 -10 11 -17 13 -20 5 -2 -7 -9 -8 -21 -1 -10 5 -21 6 -25
3 -3 -3 -6 -1 -6 6 0 7 -4 9 -10 6 -5 -3 -10 -1 -10 6 0 7 -3 10 -6 6 -4 -3
-21 0 -38 7 -45 18 -294 16 -305 -3 -7 -11 -10 -10 -14 5 -4 16 -5 16 -6 -3z"/>
</g>
</svg>
